<?xml version="1.0" encoding="utf-8"?>
<!-- Generator: Adobe Illustrator 22.1.0, SVG Export Plug-In . SVG Version: 6.00 Build 0)  -->
<svg version="1.1" id="Layer_1" xmlns="http://www.w3.org/2000/svg" xmlns:xlink="http://www.w3.org/1999/xlink" x="0px" y="0px"
	 viewBox="0 0 512 512" style="enable-background:new 0 0 512 512;" xml:space="preserve">
<style type="text/css">
	.st0{fill:none;}
	.st1{fill:#54667A;}
</style>
<g>
	<circle class="st0" cx="256" cy="186.5" r="8.8"/>
	<path class="st0" d="M406.1,62.9c0-4.9-4-8.8-8.8-8.8h-26.5v17.7c0,4.9-4,8.8-8.8,8.8h-35.3c-4.9,0-8.8-4-8.8-8.8V54.1h-35.3v17.7
		c0,4.9-4,8.8-8.8,8.8h-35.3c-4.9,0-8.8-4-8.8-8.8V54.1h-35.3v17.7c0,4.9-4,8.8-8.8,8.8h-35.3c-4.9,0-8.8-4-8.8-8.8V54.1h-35.3v17.7
		c0,4.9-4,8.8-8.8,8.8H61.8c-4.9,0-8.8-4-8.8-8.8V54.1H26.5c-4.9,0-8.8,4-8.8,8.8V107h388.4V62.9z"/>
	<circle class="st0" cx="79.4" cy="327.7" r="8.8"/>
	<circle class="st0" cx="167.7" cy="327.7" r="8.8"/>
	<circle class="st0" cx="79.4" cy="186.5" r="8.8"/>
	<path class="st0" d="M353.1,36.4c0-4.9-4-8.8-8.8-8.8s-8.8,4-8.8,8.8v26.5h17.7V36.4z"/>
	<circle class="st0" cx="167.7" cy="257.1" r="8.8"/>
	<path class="st0" d="M264.8,36.4c0-4.9-4-8.8-8.8-8.8s-8.8,4-8.8,8.8v26.5h17.7V36.4z"/>
	<path class="st0" d="M176.6,36.4c0-4.9-4-8.8-8.8-8.8s-8.8,4-8.8,8.8v26.5h17.7V36.4z"/>
	<path class="st0" d="M88.3,36.4c0-4.9-4-8.8-8.8-8.8s-8.8,4-8.8,8.8v26.5h17.7V36.4z"/>
	<circle class="st0" cx="79.4" cy="257.1" r="8.8"/>
	<path class="st0" d="M441.4,354.2H459c-0.1-50.2-38.3-92.1-88.3-96.7v17.2c0,4.9-4,8.8-8.8,8.8s-8.8-4-8.8-8.8v-17.2
		c-50,4.6-88.2,46.5-88.3,96.7h17.7c4.9,0,8.8,4,8.8,8.8s-4,8.8-8.8,8.8h-16c8,42.7,43.3,75,86.6,79v-17.2c0-4.9,4-8.8,8.8-8.8
		s8.8,4,8.8,8.8v17.2c43.3-4,78.6-36.3,86.6-79h-16c-4.9,0-8.8-4-8.8-8.8S436.5,354.2,441.4,354.2z M420.6,325.7l-53,44.1
		c-1.6,1.3-3.6,2-5.7,2c-0.4,0-0.8,0-1.3-0.1c-2.5-0.4-4.7-1.8-6.1-3.8l-17.7-26.5c-2.7-4.1-1.6-9.5,2.4-12.2
		c4.1-2.7,9.5-1.6,12.2,2.4l12.2,18.3l45.4-37.9c3.8-3.1,9.3-2.6,12.4,1.1C424.8,317,424.3,322.6,420.6,325.7z"/>
	<path class="st0" d="M233.2,277c27.1-45.2,76-72.9,128.7-72.8c15,0,29.8,2.2,44.1,6.6v-86.1H17.7v300.1h211.9
		C204.7,378.3,206.1,322.2,233.2,277z M256,160c14.6,0,26.5,11.9,26.5,26.5S270.6,213,256,213s-26.5-11.9-26.5-26.5
		S241.4,160,256,160z M79.4,354.2c-14.6,0-26.5-11.9-26.5-26.5s11.9-26.5,26.5-26.5c14.6,0,26.5,11.9,26.5,26.5
		S94.1,354.2,79.4,354.2z M79.4,283.6c-14.6,0-26.5-11.9-26.5-26.5c0-14.6,11.9-26.5,26.5-26.5c14.6,0,26.5,11.9,26.5,26.5
		C105.9,271.7,94.1,283.6,79.4,283.6z M79.4,213C64.8,213,53,201.1,53,186.5S64.8,160,79.4,160c14.6,0,26.5,11.9,26.5,26.5
		S94.1,213,79.4,213z M167.7,354.2c-14.6,0-26.5-11.9-26.5-26.5s11.9-26.5,26.5-26.5s26.5,11.9,26.5,26.5S182.4,354.2,167.7,354.2z
		 M167.7,283.6c-14.6,0-26.5-11.9-26.5-26.5c0-14.6,11.9-26.5,26.5-26.5s26.5,11.9,26.5,26.5C194.2,271.7,182.4,283.6,167.7,283.6z
		 M167.7,213c-14.6,0-26.5-11.9-26.5-26.5s11.9-26.5,26.5-26.5s26.5,11.9,26.5,26.5S182.4,213,167.7,213z"/>
	<path class="st0" d="M53,442.5v17.7h202.8c-5.4-5.5-10.4-11.4-14.9-17.7H53z"/>
	<path class="st0" d="M361.9,221.8c-73.1,0-132.4,59.3-132.4,132.4s59.3,132.4,132.4,132.4s132.4-59.3,132.4-132.4
		C494.3,281.1,435,221.9,361.9,221.8z M361.9,469c-63.4,0-114.8-51.4-114.8-114.8c0.1-63.3,51.4-114.7,114.8-114.8
		c63.4,0,114.8,51.4,114.8,114.8S425.3,469,361.9,469z"/>
	<circle class="st0" cx="167.7" cy="186.5" r="8.8"/>
	<path class="st1" d="M511.9,348.3c-2.3-56.8-36.4-107.4-88.2-130.7V62.9c0-14.6-11.9-26.5-26.5-26.5h-26.5
		c0-14.6-11.9-26.5-26.5-26.5s-26.5,11.9-26.5,26.5h-35.3c0-14.6-11.9-26.5-26.5-26.5s-26.5,11.9-26.5,26.5h-35.3
		c0-14.6-11.9-26.5-26.5-26.5s-26.5,11.9-26.5,26.5h-35.3c0-14.6-11.9-26.5-26.5-26.5C64.8,9.9,53,21.8,53,36.4H26.5
		C11.9,36.4,0,48.3,0,62.9v370.8c0,4.9,4,8.8,8.8,8.8h26.5V469c0,4.9,4,8.8,8.8,8.8h232.5c0.1,0,0.2-0.1,0.3-0.1
		c46.8,32.2,107.7,35.3,157.5,7.9C484.1,458.2,514.1,405.1,511.9,348.3z M335.5,36.4c0-4.9,4-8.8,8.8-8.8s8.8,4,8.8,8.8v26.5h-17.7
		V36.4z M247.2,36.4c0-4.9,4-8.8,8.8-8.8s8.8,4,8.8,8.8v26.5h-17.7V36.4z M158.9,36.4c0-4.9,4-8.8,8.8-8.8s8.8,4,8.8,8.8v26.5h-17.7
		V36.4z M70.6,36.4c0-4.9,4-8.8,8.8-8.8s8.8,4,8.8,8.8v26.5H70.6V36.4z M17.7,62.9c0-4.9,4-8.8,8.8-8.8H53v17.7c0,4.9,4,8.8,8.8,8.8
		h35.3c4.9,0,8.8-4,8.8-8.8V54.1h35.3v17.7c0,4.9,4,8.8,8.8,8.8h35.3c4.9,0,8.8-4,8.8-8.8V54.1h35.3v17.7c0,4.9,4,8.8,8.8,8.8h35.3
		c4.9,0,8.8-4,8.8-8.8V54.1h35.3v17.7c0,4.9,4,8.8,8.8,8.8h35.3c4.9,0,8.8-4,8.8-8.8V54.1h26.5c4.9,0,8.8,4,8.8,8.8V107H17.7V62.9z
		 M17.7,424.8V124.7h388.4v86.1c-14.3-4.4-29.2-6.7-44.1-6.6c-52.7,0-101.6,27.6-128.7,72.8c-27.1,45.2-28.5,101.4-3.6,147.9H17.7z
		 M53,460.1v-17.7h187.9c4.5,6.3,9.5,12.2,14.9,17.7H53z M361.9,486.6c-73.1,0-132.4-59.3-132.4-132.4s59.3-132.4,132.4-132.4
		c73.1,0.1,132.3,59.3,132.4,132.4C494.4,427.3,435.1,486.6,361.9,486.6z"/>
	<path class="st1" d="M79.4,160C64.8,160,53,171.9,53,186.5S64.8,213,79.4,213c14.6,0,26.5-11.9,26.5-26.5S94.1,160,79.4,160z
		 M79.4,195.3c-4.9,0-8.8-4-8.8-8.8s4-8.8,8.8-8.8s8.8,4,8.8,8.8S84.3,195.3,79.4,195.3z"/>
	<path class="st1" d="M167.7,160c-14.6,0-26.5,11.9-26.5,26.5s11.9,26.5,26.5,26.5s26.5-11.9,26.5-26.5S182.4,160,167.7,160z
		 M167.7,195.3c-4.9,0-8.8-4-8.8-8.8s4-8.8,8.8-8.8s8.8,4,8.8,8.8S172.6,195.3,167.7,195.3z"/>
	<path class="st1" d="M256,213c14.6,0,26.5-11.9,26.5-26.5S270.6,160,256,160s-26.5,11.9-26.5,26.5S241.4,213,256,213z M256,177.6
		c4.9,0,8.8,4,8.8,8.8s-4,8.8-8.8,8.8s-8.8-4-8.8-8.8S251.1,177.6,256,177.6z"/>
	<path class="st1" d="M79.4,230.6c-14.6,0-26.5,11.9-26.5,26.5c0,14.6,11.9,26.5,26.5,26.5c14.6,0,26.5-11.9,26.5-26.5
		C105.9,242.5,94.1,230.6,79.4,230.6z M79.4,265.9c-4.9,0-8.8-4-8.8-8.8s4-8.8,8.8-8.8s8.8,4,8.8,8.8S84.3,265.9,79.4,265.9z"/>
	<path class="st1" d="M167.7,230.6c-14.6,0-26.5,11.9-26.5,26.5c0,14.6,11.9,26.5,26.5,26.5s26.5-11.9,26.5-26.5
		C194.2,242.5,182.4,230.6,167.7,230.6z M167.7,265.9c-4.9,0-8.8-4-8.8-8.8s4-8.8,8.8-8.8s8.8,4,8.8,8.8S172.6,265.9,167.7,265.9z"
		/>
	<path class="st1" d="M79.4,301.2c-14.6,0-26.5,11.9-26.5,26.5s11.9,26.5,26.5,26.5c14.6,0,26.5-11.9,26.5-26.5
		S94.1,301.2,79.4,301.2z M79.4,336.5c-4.9,0-8.8-4-8.8-8.8s4-8.8,8.8-8.8s8.8,4,8.8,8.8S84.3,336.5,79.4,336.5z"/>
	<path class="st1" d="M167.7,301.2c-14.6,0-26.5,11.9-26.5,26.5s11.9,26.5,26.5,26.5s26.5-11.9,26.5-26.5S182.4,301.2,167.7,301.2z
		 M167.7,336.5c-4.9,0-8.8-4-8.8-8.8s4-8.8,8.8-8.8s8.8,4,8.8,8.8S172.6,336.5,167.7,336.5z"/>
	<path class="st1" d="M361.9,239.4c-63.3,0.1-114.7,51.4-114.8,114.8c0,63.4,51.4,114.8,114.8,114.8s114.8-51.4,114.8-114.8
		S425.3,239.4,361.9,239.4z M441.4,371.9h16c-8,42.7-43.3,75-86.6,79v-17.2c0-4.9-4-8.8-8.8-8.8s-8.8,4-8.8,8.8v17.2
		c-43.3-4-78.6-36.3-86.6-79h16c4.9,0,8.8-4,8.8-8.8s-4-8.8-8.8-8.8h-17.7c0.1-50.2,38.3-92.1,88.3-96.7v17.2c0,4.9,4,8.8,8.8,8.8
		s8.8-4,8.8-8.8v-17.2c50,4.6,88.2,46.5,88.3,96.7h-17.7c-4.9,0-8.8,4-8.8,8.8S436.5,371.9,441.4,371.9z"/>
	<path class="st1" d="M409.3,312.1L363.8,350l-12.2-18.3c-2.7-4.1-8.2-5.2-12.2-2.4c-4.1,2.7-5.2,8.2-2.4,12.2l17.7,26.5
		c1.4,2.1,3.6,3.5,6.1,3.8c0.4,0.1,0.8,0.1,1.3,0.1c2.1,0,4.1-0.7,5.7-2l53-44.1c3.8-3.1,4.3-8.7,1.1-12.4
		C418.6,309.5,413,309,409.3,312.1z"/>
</g>
</svg>
