<?xml version="1.0" encoding="utf-8"?>
<!-- Generator: Adobe Illustrator 22.1.0, SVG Export Plug-In . SVG Version: 6.00 Build 0)  -->
<svg version="1.1" id="Layer_1" xmlns="http://www.w3.org/2000/svg" xmlns:xlink="http://www.w3.org/1999/xlink" x="0px" y="0px"
	 viewBox="0 0 25 23" style="enable-background:new 0 0 25 23;" xml:space="preserve">
<style type="text/css">
	.st0{fill:#54667A;}
</style>
<g>
	<path class="st0" d="M19.5,2.1C17.4,0.7,15,0,12.5,0C5.6,0,0,5.5,0,12.4c0,2.5,0.7,4.9,2.1,7h1.6l0,0l0,0h0.1c0,0,0,0,0,0L6,17.5
		l-1-1.2l-2,1.8c-1-1.7-1.5-3.6-1.5-5.6c0-0.1,0-0.2,0-0.3h2.5v-1.6H1.5c0.3-1.9,1.1-3.7,2.3-5.1l1.7,1.7l1.1-1.1L5,4.3
		c1.8-1.6,4-2.7,6.5-2.9v2.8H13V1.4c2.7,0.1,5.2,1.2,7.2,3l-1.8,1.8l1.1,1.1l1.8-1.8c1.1,1.4,1.9,3.2,2.2,5H21v1.6h2.6
		c0,0.1,0,0.2,0,0.3c0,2-0.5,3.9-1.5,5.6l-1.9-1.9l-1.1,1.1l2.1,2.1c0,0,0,0,0,0h1.7C26.7,13.7,25.2,5.9,19.5,2.1z"/>
	<polygon class="st0" points="6.8,20.1 6.8,23 18.1,23 18.1,20.1 6.8,20.1 	"/>
	<polygon class="st0" points="12.9,14.5 12.9,14.5 12.9,14.5 	"/>
	<path class="st0" d="M14.1,13.4c0-0.6-0.5-1.1-1.1-1.2c0,0,0,0-0.1,0L7.8,8.5l4,4.9c0,0.6,0.5,1.1,1.1,1.1
		C13.6,14.5,14.1,14,14.1,13.4z"/>
</g>
</svg>
