<svg fill="#212529" version="1.1" id="Layer_1" xmlns="http://www.w3.org/2000/svg" xmlns:xlink="http://www.w3.org/1999/xlink" x="0px" y="0px"
	 viewBox="0 0 2399.7 2399.7" style="enable-background:new 0 0 2399.7 2399.7;" xml:space="preserve">
	<path d="M1267.841,2401.7c-43.328,0-86.656,0-129.984,0c-1.836-0.552-3.653-1.508-5.512-1.597
		c-36.586-1.764-72.856-6.28-109.015-11.978c-86.511-13.632-170.316-37.02-251.465-69.841
		c-172.696-69.846-321.612-174.05-447.809-310.882c-87.648-95.035-158.697-201.214-212.973-318.574
		c-44.265-95.714-75.188-195.588-92.548-299.589c-6.407-38.384-11.085-77.008-12.991-115.936
		c-0.417-8.524-2.324-16.974-3.544-25.458c0-30.663,0-61.326,0-91.989c1.219-8.1,3.111-16.163,3.543-24.305
		c1.939-36.576,6.324-72.852,12.012-109.014c14.763-93.864,40.347-184.716,78.297-271.758
		C222.118,461.171,428.173,247.987,713.219,112.09C851.825,46.008,998.555,10.189,1152.17,3.436c1.912-0.084,3.791-0.94,5.685-1.436
		c30.663,0,61.326,0,91.989,0c1.86,0.499,3.706,1.369,5.582,1.442c36.255,1.403,72.275,5.139,108.201,10.154
		c83.055,11.595,163.832,32.171,242.294,61.631c193.47,72.64,358.087,187.299,494.664,342.084
		c124.295,140.866,212.497,301.647,262.232,483.027c20.632,75.244,34.728,151.703,37.434,229.944
		c0.065,1.873,0.947,3.718,1.448,5.576c0,44.661,0,89.322,0,133.983c-0.502,1.839-1.418,3.672-1.445,5.519
		c-0.44,29.335-4.137,58.35-8.161,87.355c-9.537,68.742-25.318,136.036-47.388,201.789
		c-69.146,206.005-185.421,381.229-346.679,526.448c-150.003,135.084-322.678,228.488-518.777,277.691
		c-67.575,16.955-136.14,27.853-205.79,31.468C1271.565,2400.209,1269.713,2401.151,1267.841,2401.7z M1203.798,220.052
		c-32.219,1.828-64.467,3.24-96.649,5.577c-53.542,3.889-106.266,13.168-158.242,26.432
		c-189.134,48.267-350.872,142.955-480.913,288.924c-158.101,177.465-235.47,387.586-245.48,623.619
		c-2.06,48.563-0.079,97.153,4.94,145.615c5.805,56.056,15.576,111.329,30.586,165.619
		c51.443,186.077,148.043,344.368,294.23,470.922c175.744,152.143,382.197,226.637,613.038,236.414
		c54.9,2.325,109.78-0.32,164.452-6.96c61.61-7.483,122.124-19.896,181.293-38.54c178.023-56.093,328.619-154.115,448.205-297.709
		c141.791-170.257,213.453-367.927,224.116-588.35c3.222-66.613,0.382-133.063-9.211-199.196
		c-9.73-67.076-25.029-132.778-48.461-196.36c-91.24-247.587-255.389-429.3-494.078-542.286
		C1496.475,249.802,1353.139,221.187,1203.798,220.052z"/>
	<path d="M975.071,1034.74c3.071-9.49,6.953-18.083,8.509-27.078c2.431-14.052,10.05-18.495,23.874-20.601
		c82.18-12.519,164.178-26.231,246.235-39.552c37.747-6.128,75.491-12.276,113.234-18.424c0.984-0.16,1.95-0.62,2.925-0.622
		c21.63-0.036,43.26-0.028,66.301-0.028c-1.047,4.259-1.764,7.687-2.731,11.043c-29.501,102.323-59.048,204.632-88.544,306.956
		c-45.903,159.244-91.961,318.443-137.471,477.798c-7.476,26.177-12.67,53.018-18.552,79.632
		c-3.055,13.824,1.269,25.557,11.741,35.137c9.381,8.582,20.365,10.196,31.534,5.635c8.488-3.466,16.793-8.245,23.935-13.987
		c22.444-18.046,41.639-39.44,58.876-62.372c19.806-26.349,38.507-53.53,57.69-80.348c1.534-2.145,3.081-4.28,5.424-7.533
		c12.625,7.422,25.094,14.753,37.843,22.248c-0.989,2.138-1.557,3.682-2.372,5.083c-35.089,60.351-73.896,118.05-121.78,169.167
		c-36.253,38.702-76.495,72.252-124.856,95.144c-38.947,18.435-79.9,27.525-122.944,25.217
		c-42.272-2.267-80.168-15.454-109.818-47.502c-25.543-27.61-36.663-60.562-36.411-97.638c0.214-31.539,6.877-62.112,15.607-92.22
		c52.362-180.588,104.868-361.133,157.307-541.699c9.284-31.967,18.159-64.052,22.019-97.225c1.15-9.88,2.044-19.991,1.255-29.852
		c-1.551-19.377-12.995-33.048-28.487-43.595c-14.894-10.14-32.005-12.813-49.468-13.195c-11.293-0.247-22.613,0.787-33.924,1.148
		C980.135,1035.539,978.232,1035.094,975.071,1034.74z"/>
	<path d="M1203.52,578.968c-3.896-84.113,69.841-165.695,164.25-165.142c89.641,0.525,164.464,74.794,163.98,166.229
		c-0.479,90.521-77.418,165.261-167.58,163.941C1275.123,742.692,1199.745,664.088,1203.52,578.968z"/>
</svg>
