<?xml version="1.0" encoding="iso-8859-1"?>
<!-- Generator: Adobe Illustrator 19.0.0, SVG Export Plug-In . SVG Version: 6.00 Build 0)  -->
<svg xmlns="http://www.w3.org/2000/svg" xmlns:xlink="http://www.w3.org/1999/xlink" version="1.1" id="Layer_1" x="0px" y="0px" viewBox="0 0 512 512" style="enable-background:new 0 0 512 512;" xml:space="preserve" width="512px" height="512px">
<g>
	<g>
		<g>
			<path d="M153.6,324.267c4.719,0,8.533-3.823,8.533-8.533v-62.106c5.077-2.961,8.533-8.405,8.533-14.694     c0-9.412-7.654-17.067-17.067-17.067c-9.412,0-17.067,7.654-17.067,17.067c0,6.289,3.456,11.733,8.533,14.694v62.106     C145.067,320.444,148.881,324.267,153.6,324.267z" fill="#54667a"/>
			<path d="M85.658,134.426c1.63,16.401,8.764,30.839,9.105,31.522c7.74,15.471,19.43,38.852,58.837,38.852     c39.407,0,51.098-23.381,58.837-38.852c0.341-0.683,7.475-15.121,9.105-31.522c5.274-2.901,8.858-8.525,8.858-14.959V102.4     c0-6.306-3.43-11.819-8.533-14.771v-2.295c0-28.237-22.963-51.2-51.2-51.2h-34.133c-28.237,0-51.2,22.963-51.2,51.2v2.295     C80.23,90.581,76.8,96.094,76.8,102.4v17.067C76.8,125.901,80.384,131.524,85.658,134.426z M93.867,102.4     c4.719,0,8.533-3.823,8.533-8.533v-8.533c0-18.825,15.309-34.133,34.133-34.133h34.133c18.825,0,34.133,15.309,34.133,34.133     v8.533c0,4.71,3.814,8.533,8.533,8.533v17.067c-4.719,0-8.533,3.823-8.533,8.533c0,14.763-7.56,30.174-7.637,30.319     c-8.883,17.766-16.717,29.414-43.563,29.414c-26.846,0-34.68-11.648-43.554-29.406c-0.085-0.154-7.646-15.565-7.646-30.327     c0-4.71-3.814-8.533-8.533-8.533V102.4z" fill="#54667a"/>
			<path d="M170.667,119.467h8.533c4.719,0,8.533-3.823,8.533-8.533c0-4.71-3.814-8.533-8.533-8.533h-8.533     c-4.719,0-8.533,3.823-8.533,8.533C162.133,115.644,165.948,119.467,170.667,119.467z" fill="#54667a"/>
			<path d="M128,119.467h8.533c4.719,0,8.533-3.823,8.533-8.533c0-4.71-3.814-8.533-8.533-8.533H128     c-4.719,0-8.533,3.823-8.533,8.533C119.467,115.644,123.281,119.467,128,119.467z" fill="#54667a"/>
			<path d="M59.733,324.267c-4.719,0-8.533,3.823-8.533,8.533v136.533c0,4.71,3.814,8.533,8.533,8.533s8.533-3.823,8.533-8.533     V332.8C68.267,328.09,64.452,324.267,59.733,324.267z" fill="#54667a"/>
			<path d="M452.83,324.267h-0.034c-4.693,0-8.516,3.797-8.533,8.499l-0.529,136.533c-0.017,4.71,3.78,8.55,8.499,8.568h0.034     c4.702,0,8.516-3.797,8.533-8.499l0.529-136.533C461.346,328.124,457.549,324.284,452.83,324.267z" fill="#54667a"/>
			<path d="M375.023,108.237c-1.152-3.49-4.412-5.837-8.09-5.837s-6.929,2.347-8.09,5.837     c-6.417,19.243-25.301,19.755-26.044,19.763c-4.719,0-8.533,3.823-8.533,8.533v34.133c0,28.501,19.473,68.267,51.2,68.267     s51.2-39.765,51.2-68.267v-34.133c0-4.71-3.814-8.533-8.533-8.533C417.766,128,381.44,127.462,375.023,108.237z M409.6,170.667     c0,23.194-15.224,51.2-34.133,51.2s-34.133-28.006-34.133-51.2v-26.641c8.354-1.894,18.671-6.656,26.249-16.35     c11.955,11.955,31.019,15.693,42.018,16.862V170.667z" fill="#54667a"/>
			<path d="M491.076,264.542c-16.725-16.691-41.847-25.506-72.687-25.506c-4.779,0.094-8.764,3.729-8.789,8.508     c-0.009,1.741-0.597,42.59-34.133,42.59s-34.125-40.841-34.133-42.581c-0.009-4.702-3.823-8.508-8.533-8.508     c-4.719,0-8.533,3.814-8.533,8.533c0,19.081,9.216,53.837,42.667,58.931v43.358c0,4.71,3.814,8.533,8.533,8.533     s8.533-3.823,8.533-8.533V306.5c28.8-4.395,39.646-30.746,42.095-50.185c22.63,1.271,40.815,8.218,52.924,20.309     c10.266,10.249,15.915,24.132,15.915,39.108v136.533c0,4.71,3.814,8.533,8.533,8.533c4.719,0,8.533-3.823,8.533-8.533V315.733     C512,296.192,504.568,278.016,491.076,264.542z" fill="#54667a"/>
			<path d="M247.467,324.267c-4.719,0-8.533,3.823-8.533,8.533v136.533c0,4.71,3.814,8.533,8.533,8.533s8.533-3.823,8.533-8.533     V332.8C256,328.09,252.186,324.267,247.467,324.267z" fill="#54667a"/>
			<path d="M366.933,68.267H384c22.46,0,49.749,23.057,51.226,43.324l8.533,110.933c0.341,4.471,4.079,7.876,8.499,7.876     c0.213,0,0.444-0.008,0.666-0.026c4.693-0.358,8.209-4.463,7.851-9.165l-8.533-110.899C449.963,79.036,412.186,51.2,384,51.2     h-17.067c-31.061,0-65.493,29.747-68.241,59.076l-8.533,110.933c-0.358,4.702,3.157,8.806,7.851,9.165     c4.787,0.307,8.806-3.157,9.165-7.851l8.525-110.797C317.602,91.418,344.892,68.267,366.933,68.267z" fill="#54667a"/>
			<path d="M196.821,221.978c-4.224-0.068-8.055,2.645-8.909,6.793L153.6,393.404L119.287,228.77     c-0.862-4.147-4.821-6.784-8.926-6.793c-44.826,0-79.121,9.6-96.606,27.042C4.634,258.133,0,269.099,0,281.6v170.667     c0,4.71,3.814,8.533,8.533,8.533s8.533-3.823,8.533-8.533V281.6c0-7.919,2.867-14.626,8.747-20.506     c13.295-13.269,41.574-21.163,78.191-21.982l41.225,197.709c0,0.017,0.009,0.034,0.009,0.051l0.008,0.068     c0.06,0.265,0.239,0.469,0.316,0.725c0.247,0.802,0.512,1.596,0.981,2.287c0.273,0.418,0.683,0.708,1.024,1.067     c0.427,0.427,0.785,0.913,1.289,1.254c0.563,0.375,1.22,0.555,1.86,0.785c0.393,0.145,0.717,0.41,1.143,0.495h0.06     c0.538,0.111,1.126,0.009,1.69,0.009c0.563,0,1.152,0.102,1.698-0.009h0.034c0.282-0.06,0.495-0.239,0.759-0.324     c0.794-0.247,1.587-0.512,2.27-0.973c0.427-0.29,0.725-0.708,1.092-1.067c0.41-0.401,0.879-0.751,1.203-1.237     c0.461-0.674,0.708-1.459,0.956-2.244c0.085-0.265,0.273-0.486,0.333-0.768l0.008-0.068c0-0.017,0.009-0.034,0.009-0.051     l41.225-197.709c36.625,0.819,64.896,8.721,78.191,21.982c5.88,5.879,8.747,12.587,8.747,20.506v170.667     c0,4.71,3.814,8.533,8.533,8.533s8.533-3.823,8.533-8.533V281.6c0-12.501-4.634-23.467-13.756-32.58     C275.959,231.569,241.664,221.978,196.821,221.978z" fill="#54667a"/>
		</g>
	</g>
</g>
<g>
</g>
<g>
</g>
<g>
</g>
<g>
</g>
<g>
</g>
<g>
</g>
<g>
</g>
<g>
</g>
<g>
</g>
<g>
</g>
<g>
</g>
<g>
</g>
<g>
</g>
<g>
</g>
<g>
</g>
</svg>
