<?xml version="1.0" encoding="utf-8"?>
<!-- Generator: Adobe Illustrator 22.1.0, SVG Export Plug-In . SVG Version: 6.00 Build 0)  -->
<svg version="1.1" id="Layer_1" xmlns="http://www.w3.org/2000/svg" xmlns:xlink="http://www.w3.org/1999/xlink" x="0px" y="0px"
	 viewBox="0 0 408 408" style="enable-background:new 0 0 408 408;" xml:space="preserve">
<style type="text/css">
	.st0{fill:none;}
	.st1{fill:#54667A;}
</style>
<g>
	<path class="st0" d="M53,359.7v22.9c0,3.1,2.9,5.4,6,5.4h33.5c1.4,0,2.9-0.5,3.9-1.5c1-1,1.6-2.4,1.6-3.9V360H53.8
		C53.6,360,54,359.7,53,359.7z"/>
	<rect x="66" y="271" class="st0" width="34" height="17"/>
	<path class="st0" d="M354.2,360H310v22.6c0,1.5,0.6,2.9,1.6,3.9c1,1,2.4,1.6,3.9,1.5H349c3.1,0,6-2.3,6-5.4v-22.9
		C354,359.7,354.3,360,354.2,360z"/>
	<polygon class="st0" points="194,72.3 33,71.6 33,190.9 194,191.6 	"/>
	<rect x="308" y="271" class="st0" width="34" height="17"/>
	<polygon class="st0" points="214,191.7 375,192.4 375,73.1 214,72.4 	"/>
	<path class="st0" d="M204.1,212c-0.9,0-1.8-0.2-2.6-0.4L33,210.9v107.7c0,11.6,9.2,21.4,20.8,21.4h300.4c11.7,0,20.8-9.8,20.8-21.4
		V212.4l-168.6-0.7C205.7,211.9,204.9,212,204.1,212z M120,298c0,5.5-4.5,10-10,10H56c-5.5,0-10-4.5-10-10v-37c0-5.5,4.5-10,10-10
		h54c5.5,0,10,4.5,10,10V298z M255,310H153c-5.5,0-10-4.5-10-10s4.5-10,10-10h102c5.5,0,10,4.5,10,10S260.5,310,255,310z M288,261
		c0-5.5,4.5-10,10-10h54c5.5,0,10,4.5,10,10v37c0,5.5-4.5,10-10,10h-54c-5.5,0-10-4.5-10-10V261z M265,264c0,5.5-4.5,10-10,10H153
		c-5.5,0-10-4.5-10-10s4.5-10,10-10h102C260.5,254,265,258.5,265,264z"/>
	<path class="st0" d="M354.1,21.2L53.8,20h-0.1c-5.5,0-10.8,2.2-14.7,6.1c-3.9,3.9-6.1,9.3-6,14.9v10.6L375,53V42.2
		C375,30.6,365.7,21.2,354.1,21.2z"/>
	<path class="st1" d="M354.2,1.2L54,0h-0.2C42.9,0,32.5,4.3,24.9,12C17.2,19.7,12.9,30.1,13,41v277.6c-0.1,14.6,7.5,28.2,20,35.7
		v28.3c0,14.1,11.9,25.4,26,25.4h33.5c6.8,0,13.2-2.6,18-7.4s7.5-11.2,7.5-18V360h172v22.6c0,14.1,11.4,25.4,25.5,25.4H349
		c14.1,0,26-11.3,26-25.4v-28.3c12.5-7.5,20.1-21.1,20-35.7V42.2C395,19.6,376.8,1.3,354.2,1.2z M33,71.6l161,0.7v119.3l-161-0.7
		V71.6z M98,382.6c0,1.4-0.6,2.8-1.6,3.9c-1,1-2.4,1.6-3.9,1.5H59c-3.1,0-6-2.3-6-5.4v-22.9c1,0,0.6,0.3,0.8,0.3H98V382.6z
		 M355,382.6c0,3.1-2.9,5.4-6,5.4h-33.5c-1.5,0-2.9-0.5-3.9-1.5c-1-1-1.6-2.4-1.6-3.9V360h44.2c0.1,0-0.2-0.3,0.8-0.3V382.6z
		 M375,318.6c0,11.6-9.1,21.4-20.8,21.4H53.8c-11.6,0-20.8-9.8-20.8-21.4V210.9l168.5,0.7c0.8,0.2,1.7,0.4,2.6,0.4
		c0.8,0,1.6-0.1,2.3-0.3l168.6,0.7V318.6z M375,192.4l-161-0.7V72.4l161,0.7V192.4z M375,53L33,51.6V41c-0.1-5.6,2.1-10.9,6-14.9
		c3.9-3.9,9.2-6.1,14.7-6.1h0.1l300.3,1.2c11.6,0,20.9,9.4,20.9,21V53z"/>
	<path class="st1" d="M298,308h54c5.5,0,10-4.5,10-10v-37c0-5.5-4.5-10-10-10h-54c-5.5,0-10,4.5-10,10v37
		C288,303.5,292.5,308,298,308z M308,271h34v17h-34V271z"/>
	<path class="st1" d="M110,251H56c-5.5,0-10,4.5-10,10v37c0,5.5,4.5,10,10,10h54c5.5,0,10-4.5,10-10v-37
		C120,255.5,115.5,251,110,251z M100,288H66v-17h34V288z"/>
	<path class="st1" d="M255,290H153c-5.5,0-10,4.5-10,10s4.5,10,10,10h102c5.5,0,10-4.5,10-10S260.5,290,255,290z"/>
	<path class="st1" d="M143,264c0,5.5,4.5,10,10,10h102c5.5,0,10-4.5,10-10s-4.5-10-10-10H153C147.5,254,143,258.5,143,264z"/>
</g>
</svg>
